<?xml version="1.0" encoding="UTF-8" standalone="no"?><!DOCTYPE svg PUBLIC "-//W3C//DTD SVG 1.1//EN" "http://www.w3.org/Graphics/SVG/1.1/DTD/svg11.dtd"><svg width="150px" height="90px" viewBox="0 0 150 90" version="1.1" xmlns="http://www.w3.org/2000/svg" xmlns:xlink="http://www.w3.org/1999/xlink" xml:space="preserve" xmlns:serif="http://www.serif.com/" style="fill-rule:evenodd;clip-rule:evenodd;stroke-linejoin:round;stroke-miterlimit:2;"><g><g><path d="M31.192,23.295c-0.047,-0.144 0.096,-0.513 0.43,-1.11c0.334,-0.596 0.703,-1.336 1.109,-2.218c0.406,-0.883 0.811,-1.885 1.217,-3.006c0.405,-1.122 0.692,-2.279 0.859,-3.472c0.166,-1.192 0.155,-2.385 -0.036,-3.578c-0.191,-1.193 -0.692,-2.338 -1.503,-3.435c-0.477,-0.573 -1.181,-0.895 -2.112,-0.967c-0.93,-0.071 -1.98,0.072 -3.149,0.43c-1.169,0.358 -2.385,0.906 -3.65,1.646c-1.264,0.74 -2.421,1.598 -3.471,2.576c-1.05,0.979 -1.944,2.064 -2.684,3.257c-0.739,1.193 -1.157,2.409 -1.252,3.65c-0.096,1.002 -0.06,1.932 0.107,2.791c0.167,0.859 0.394,1.646 0.68,2.362c0.286,0.716 0.597,1.384 0.931,2.004c0.333,0.62 0.644,1.169 0.93,1.646c0.382,0.668 0.978,1.408 1.789,2.219c0.811,0.811 1.694,1.729 2.648,2.755c0.955,1.026 1.909,2.183 2.863,3.471c0.954,1.289 1.789,2.744 2.505,4.366c0.716,1.622 1.217,3.435 1.503,5.439c0.286,2.004 0.262,4.223 -0.072,6.656c-0.524,3.531 -1.359,6.477 -2.505,8.839c-1.145,2.362 -2.397,4.259 -3.757,5.69c-1.36,1.431 -2.732,2.469 -4.115,3.113c-1.384,0.644 -2.529,1.062 -3.436,1.253c-0.715,0.143 -1.562,0.274 -2.54,0.393c-0.978,0.12 -2.004,0.096 -3.078,-0.071c-1.073,-0.167 -2.159,-0.501 -3.256,-1.002c-1.098,-0.501 -2.076,-1.276 -2.935,-2.326c-1.002,-1.193 -1.789,-2.481 -2.361,-3.865c-0.525,-1.193 -0.919,-2.564 -1.181,-4.115c-0.263,-1.551 -0.132,-3.161 0.393,-4.831c0.382,-0.43 0.788,-0.811 1.217,-1.145c0.429,-0.334 0.859,-0.621 1.288,-0.859c0.477,-0.286 0.978,-0.549 1.503,-0.787c0.62,-0.191 1.241,-0.358 1.861,-0.501c0.525,-0.096 1.086,-0.155 1.682,-0.179c0.596,-0.024 1.157,0.059 1.682,0.25c-0.716,0.811 -1.217,1.575 -1.503,2.29c-0.191,0.382 -0.334,0.716 -0.43,1.002c-0.19,0.907 -0.25,1.992 -0.178,3.257c0.071,1.264 0.333,2.481 0.787,3.65c0.453,1.169 1.109,2.171 1.968,3.006c0.859,0.835 2.004,1.276 3.435,1.324c3.483,0.095 6.442,-2.624 8.875,-8.159c0.811,-1.718 1.229,-3.459 1.252,-5.225c0.024,-1.765 -0.19,-3.459 -0.644,-5.081c-0.453,-1.622 -1.049,-3.137 -1.789,-4.545c-0.74,-1.407 -1.491,-2.612 -2.254,-3.614c-0.764,-1.002 -1.682,-2.088 -2.756,-3.257c-1.073,-1.168 -2.135,-2.445 -3.185,-3.828c-1.049,-1.384 -1.992,-2.887 -2.827,-4.509c-0.835,-1.623 -1.395,-3.388 -1.682,-5.297c-0.381,-2.672 -0.131,-5.117 0.752,-7.335c0.883,-2.219 2.075,-4.163 3.578,-5.833c1.503,-1.67 3.149,-3.03 4.939,-4.08c1.789,-1.05 3.375,-1.718 4.759,-2.004c7.682,-1.527 12.716,-0.238 15.101,3.865c1.002,1.574 1.551,3.244 1.646,5.01c0.096,1.765 -0.011,3.399 -0.322,4.902c-0.31,1.503 -0.691,2.768 -1.145,3.794c-0.453,1.025 -0.751,1.586 -0.894,1.681c-0.287,0.287 -0.74,0.597 -1.36,0.931c-0.62,0.334 -1.622,0.644 -3.006,0.93c-0.382,0.096 -0.764,0.143 -1.145,0.143c-0.334,0 -0.692,-0.023 -1.074,-0.071c-0.382,-0.048 -0.715,-0.143 -1.002,-0.286Z" style="fill:#1b2a30;fill-rule:nonzero;stroke:#1b2a30;stroke-width:1px;"/><path d="M76.639,40.4c0.334,-0.382 0.68,-0.585 1.038,-0.609c0.358,-0.023 0.644,0.072 0.859,0.287c0.214,0.214 0.31,0.536 0.286,0.966c-0.024,0.429 -0.227,0.906 -0.608,1.431c-0.907,1.241 -1.957,2.517 -3.149,3.829c-1.193,1.312 -2.47,2.589 -3.829,3.829c-1.36,1.241 -2.732,2.41 -4.116,3.507c-1.383,1.098 -2.719,2.004 -4.008,2.72c-1.431,0.811 -2.636,1.216 -3.614,1.216c-0.978,0 -1.944,-0.62 -2.898,-1.86c-0.859,-1.098 -1.277,-2.279 -1.253,-3.543c0.024,-1.264 0.298,-2.851 0.823,-4.759c0.334,-1.193 0.799,-2.613 1.396,-4.259c0.596,-1.646 1.073,-3.232 1.431,-4.759c0.358,-1.527 0.465,-2.827 0.322,-3.901c-0.143,-1.073 -0.763,-1.61 -1.861,-1.61c-0.763,0 -1.586,0.262 -2.469,0.787c-0.882,0.525 -1.765,1.205 -2.648,2.04c-0.883,0.835 -1.729,1.777 -2.541,2.827c-0.811,1.05 -1.526,2.075 -2.147,3.077c-0.381,1.861 -0.763,3.698 -1.145,5.511c-0.334,1.527 -0.68,3.185 -1.038,4.974c-0.357,1.79 -0.703,3.376 -1.037,4.76c-0.287,0.238 -0.597,0.405 -0.931,0.501c-0.334,0.095 -0.644,0.143 -0.93,0.143c-0.334,0 -0.668,-0.024 -1.002,-0.072c-0.382,-0.095 -0.74,-0.238 -1.074,-0.429c-0.286,-0.191 -0.572,-0.441 -0.859,-0.752c-0.286,-0.31 -0.501,-0.727 -0.644,-1.252c2.147,-8.827 3.841,-15.912 5.082,-21.256c1.24,-5.344 2.195,-9.424 2.863,-12.239c0.763,-3.34 1.288,-5.654 1.574,-6.942c0.143,-0.907 0.263,-1.789 0.358,-2.648c0.095,-0.763 0.143,-1.551 0.143,-2.362c0,-0.811 -0.071,-1.551 -0.215,-2.219c0.382,-0.238 0.8,-0.429 1.253,-0.572c0.453,-0.143 0.895,-0.263 1.324,-0.358c0.525,-0.143 1.05,-0.262 1.574,-0.358c0.525,-0.095 1.002,-0.143 1.432,-0.143c0.382,0 0.739,0.036 1.073,0.107c0.334,0.072 0.549,0.227 0.645,0.466c0.286,0.238 0.417,0.715 0.393,1.431c-0.024,0.716 -0.083,1.455 -0.179,2.219c-0.191,0.906 -0.405,1.884 -0.644,2.934c-1.002,3.865 -2.123,7.622 -3.364,11.272c-1.24,3.65 -2.385,7.551 -3.435,11.702c0.62,-0.954 1.36,-1.932 2.219,-2.934c0.858,-1.002 1.801,-1.921 2.827,-2.756c1.025,-0.835 2.111,-1.527 3.256,-2.075c1.145,-0.549 2.362,-0.823 3.65,-0.823c0.668,0 1.3,0.107 1.897,0.322c0.596,0.214 1.121,0.572 1.574,1.073c0.454,0.501 0.799,1.169 1.038,2.004c0.239,0.835 0.334,1.873 0.286,3.113c0,0.764 -0.083,1.551 -0.25,2.362c-0.167,0.811 -0.394,1.706 -0.68,2.684c-0.286,0.978 -0.656,2.064 -1.109,3.257c-0.454,1.192 -0.99,2.576 -1.611,4.151c-0.429,1.097 -0.763,2.027 -1.002,2.791c-0.238,0.763 -0.191,1.431 0.143,2.004c0.43,0.763 1.277,0.942 2.541,0.537c1.265,-0.406 3.161,-1.635 5.69,-3.686c0.573,-0.477 1.217,-1.074 1.932,-1.79c0.716,-0.715 1.408,-1.443 2.076,-2.182c0.668,-0.74 1.288,-1.444 1.861,-2.112c0.572,-0.668 1.049,-1.193 1.431,-1.574Z" style="fill:#1b2a30;fill-rule:nonzero;stroke:#1b2a30;stroke-width:1px;"/><path d="M95.033,44.765c-0.478,1.814 -1.122,3.507 -1.933,5.082c-0.811,1.574 -1.777,2.934 -2.898,4.079c-1.122,1.146 -2.386,2.04 -3.794,2.684c-1.407,0.644 -2.946,0.966 -4.616,0.966c-1.956,0 -3.495,-0.417 -4.616,-1.252c-1.121,-0.835 -1.956,-1.873 -2.505,-3.113c-0.549,-1.241 -0.883,-2.601 -1.002,-4.08c-0.119,-1.479 -0.179,-2.863 -0.179,-4.151c0,-0.906 0.107,-1.908 0.322,-3.006c0.215,-1.097 0.513,-2.218 0.895,-3.364c0.381,-1.145 0.87,-2.29 1.467,-3.435c0.596,-1.145 1.3,-2.195 2.111,-3.149c0.286,-0.811 0.728,-1.527 1.324,-2.147c0.597,-0.62 1.288,-1.133 2.076,-1.539c0.787,-0.405 1.634,-0.715 2.54,-0.93c0.907,-0.215 1.79,-0.322 2.649,-0.322c0.143,0 0.274,0.024 0.393,0.071c0.119,0.048 0.251,0.096 0.394,0.143c0.62,0.048 1.395,0.287 2.326,0.716c0.93,0.43 1.837,1.074 2.72,1.933c0.882,0.858 1.634,1.944 2.254,3.256c0.62,1.312 0.93,2.899 0.93,4.759c0,0.382 -0.023,0.847 -0.071,1.396c-0.048,0.549 -0.096,1.014 -0.143,1.396c1.097,-0.43 2.242,-0.955 3.435,-1.575c1.193,-0.62 2.35,-1.276 3.471,-1.968c1.121,-0.692 2.159,-1.396 3.113,-2.111c0.955,-0.716 1.718,-1.36 2.291,-1.933c0.477,-0.429 0.882,-0.668 1.216,-0.716c0.334,-0.047 0.573,0.048 0.716,0.287c0.143,0.238 0.167,0.572 0.072,1.002c-0.096,0.429 -0.358,0.906 -0.788,1.431c-0.238,0.286 -0.847,0.859 -1.825,1.718c-0.978,0.859 -2.135,1.789 -3.471,2.791c-1.336,1.002 -2.791,1.98 -4.366,2.934c-1.574,0.955 -3.077,1.67 -4.508,2.147Zm-12.096,-10.878c-0.143,0.429 -0.214,0.883 -0.214,1.36c0,0.763 0.047,1.562 0.143,2.397c0.095,0.835 0.334,1.587 0.715,2.255c0.382,0.668 0.99,1.228 1.825,1.682c0.835,0.453 1.992,0.68 3.472,0.68c0.238,0 0.477,-0.012 0.715,-0.036c0.239,-0.024 0.477,-0.06 0.716,-0.108c0.143,-0.62 0.274,-1.18 0.394,-1.681c0.119,-0.501 0.178,-0.943 0.178,-1.325c0.096,-0.906 0.096,-1.836 0,-2.791c-0.095,-0.954 -0.274,-1.825 -0.536,-2.612c-0.263,-0.787 -0.597,-1.431 -1.002,-1.932c-0.406,-0.501 -0.895,-0.752 -1.467,-0.752c-0.907,0 -1.778,0.251 -2.613,0.752c-0.835,0.501 -1.61,1.204 -2.326,2.111Zm-4.58,12.596c0,0.859 0.047,1.706 0.143,2.541c0.095,0.835 0.286,1.574 0.572,2.219c0.287,0.644 0.668,1.169 1.146,1.574c0.477,0.406 1.097,0.608 1.86,0.608c0.859,0 1.646,-0.202 2.362,-0.608c0.716,-0.405 1.36,-0.93 1.933,-1.574c0.572,-0.645 1.085,-1.384 1.538,-2.219c0.454,-0.835 0.847,-1.706 1.181,-2.612c-0.334,0.047 -0.656,0.083 -0.966,0.107c-0.31,0.024 -0.656,0.036 -1.038,0.036c-1.813,0 -3.375,-0.537 -4.688,-1.611c-1.312,-1.073 -2.326,-2.445 -3.041,-4.115c-0.287,1.002 -0.525,1.98 -0.716,2.935c-0.191,0.954 -0.286,1.86 -0.286,2.719Z" style="fill:#1b2a30;fill-rule:nonzero;stroke:#1b2a30;stroke-width:1px;"/><path d="M119.724,11.915c0,0.429 -0.155,0.942 -0.465,1.539c-0.31,0.596 -0.716,1.145 -1.217,1.646c-0.501,0.501 -1.049,0.93 -1.646,1.288c-0.596,0.358 -1.205,0.537 -1.825,0.537c-0.525,0 -1.002,-0.263 -1.431,-0.787c-0.43,-0.525 -0.621,-1.241 -0.573,-2.148c0,-0.62 0.179,-1.276 0.537,-1.968c0.358,-0.692 0.811,-1.324 1.36,-1.896c0.548,-0.573 1.145,-1.038 1.789,-1.396c0.644,-0.358 1.252,-0.537 1.825,-0.537c0.811,0 1.3,0.382 1.467,1.145c0.167,0.764 0.227,1.623 0.179,2.577Zm-25.049,76.723c-1.289,0 -2.41,-0.358 -3.364,-1.074c-0.954,-0.715 -1.73,-1.622 -2.326,-2.719c-0.597,-1.098 -1.038,-2.291 -1.324,-3.579c-0.286,-1.288 -0.406,-2.505 -0.358,-3.65c0.048,-1.002 0.417,-2.29 1.109,-3.865c0.692,-1.574 1.658,-3.256 2.899,-5.045c1.24,-1.79 2.743,-3.603 4.509,-5.44c1.765,-1.837 3.721,-3.471 5.869,-4.902c0.286,-1.479 0.584,-2.994 0.894,-4.545c0.31,-1.551 0.608,-3.054 0.895,-4.509c0.286,-1.455 0.584,-2.839 0.894,-4.151c0.311,-1.312 0.609,-2.469 0.895,-3.471c0.334,-1.288 0.692,-2.648 1.074,-4.079c0.334,-1.241 0.715,-2.613 1.145,-4.116c0.429,-1.503 0.882,-3.018 1.36,-4.544c0.477,-0.239 0.93,-0.406 1.359,-0.501c0.43,-0.096 0.811,-0.167 1.145,-0.215c0.382,-0.048 0.74,-0.048 1.074,0c0.334,0.048 0.668,0.143 1.002,0.286c0.62,0.239 1.169,0.668 1.646,1.288c-0.811,2.577 -1.491,4.772 -2.04,6.585c-0.548,1.813 -1.014,3.316 -1.395,4.509c-0.43,1.383 -0.764,2.552 -1.002,3.507c-0.43,1.336 -0.811,2.851 -1.145,4.544c-0.334,1.694 -0.716,3.519 -1.145,5.475c2.003,-1.24 4.019,-2.695 6.047,-4.365c2.028,-1.67 3.889,-3.304 5.583,-4.903c1.693,-1.598 3.125,-3.006 4.294,-4.222c1.169,-1.217 1.896,-1.993 2.183,-2.327c0.334,-0.381 0.668,-0.584 1.002,-0.608c0.334,-0.024 0.608,0.084 0.823,0.322c0.214,0.239 0.31,0.585 0.286,1.038c-0.024,0.453 -0.251,0.966 -0.68,1.539c-0.668,0.954 -1.67,2.159 -3.006,3.614c-1.336,1.455 -2.863,2.982 -4.58,4.58c-1.718,1.599 -3.567,3.197 -5.547,4.796c-1.98,1.598 -3.948,2.97 -5.904,4.115c-0.43,0.238 -0.907,0.549 -1.432,0.93c-0.668,2.815 -1.312,5.583 -1.932,8.302c-0.621,2.72 -1.312,5.249 -2.076,7.587c-0.716,2.29 -1.36,4.306 -1.932,6.047c-0.573,1.742 -1.169,3.185 -1.789,4.33c-0.621,1.146 -1.324,2.004 -2.112,2.577c-0.787,0.573 -1.753,0.859 -2.898,0.859Zm-2.577,-9.018c-0.095,1.67 0.024,2.922 0.358,3.757c0.334,0.835 0.787,1.253 1.36,1.253c0.382,0 0.799,-0.406 1.252,-1.217c0.454,-0.811 0.883,-1.837 1.289,-3.077c0.405,-1.241 0.811,-2.589 1.216,-4.044c0.406,-1.455 0.764,-2.827 1.074,-4.115c0.31,-1.289 0.56,-2.386 0.751,-3.292c0.191,-0.907 0.31,-1.432 0.358,-1.575c0.096,-0.382 0.191,-0.787 0.286,-1.217c0.096,-0.429 0.191,-0.906 0.287,-1.431c-1.098,1.145 -2.135,2.326 -3.114,3.543c-0.978,1.216 -1.837,2.469 -2.576,3.757c-0.74,1.288 -1.336,2.577 -1.789,3.865c-0.454,1.288 -0.704,2.552 -0.752,3.793Z" style="fill:#1b2a30;fill-rule:nonzero;stroke:#1b2a30;stroke-width:1px;"/><path d="M138.046,13.99c-0.143,0.525 -0.417,1.038 -0.823,1.539c-0.406,0.501 -0.859,0.907 -1.36,1.217c-0.501,0.31 -1.014,0.513 -1.539,0.608c-0.524,0.096 -0.954,0 -1.288,-0.286c-1.002,-0.763 -1.527,-1.586 -1.574,-2.469c-0.048,-0.883 0.167,-1.718 0.644,-2.505c0.477,-0.787 1.073,-1.455 1.789,-2.004c0.716,-0.549 1.336,-0.871 1.861,-0.966c0.525,-0.096 0.966,0.012 1.324,0.322c0.358,0.31 0.632,0.715 0.823,1.216c0.191,0.501 0.298,1.062 0.322,1.682c0.024,0.621 -0.036,1.169 -0.179,1.646Zm-9.877,15.245c0.239,-0.286 0.692,-0.525 1.36,-0.716c0.668,-0.191 1.36,-0.346 2.076,-0.465c0.715,-0.119 1.371,-0.191 1.968,-0.215c0.596,-0.024 0.942,-0.012 1.038,0.036c0.047,0.048 -0.072,0.549 -0.358,1.503c-0.286,0.954 -0.644,2.076 -1.074,3.364c-0.429,1.288 -0.882,2.612 -1.36,3.972c-0.477,1.36 -0.835,2.469 -1.073,3.328c-0.239,0.859 -0.525,1.825 -0.859,2.898c-0.334,1.074 -0.632,2.124 -0.895,3.15c-0.262,1.025 -0.441,1.992 -0.536,2.898c-0.096,0.907 -0.024,1.599 0.214,2.076c0.239,0.572 0.501,0.966 0.788,1.181c0.286,0.214 0.596,0.322 0.93,0.322c0.954,0 2.159,-0.525 3.614,-1.575c1.456,-1.05 2.935,-2.302 4.438,-3.757c1.503,-1.456 2.898,-2.935 4.186,-4.438c1.289,-1.503 2.243,-2.707 2.863,-3.614c0.382,-0.477 0.776,-0.787 1.181,-0.93c0.406,-0.144 0.74,-0.12 1.002,0.071c0.263,0.191 0.406,0.501 0.43,0.931c0.023,0.429 -0.132,0.93 -0.466,1.503c-0.763,1.336 -1.884,2.922 -3.363,4.759c-1.48,1.837 -3.054,3.602 -4.724,5.296c-1.67,1.694 -3.304,3.137 -4.903,4.33c-1.598,1.193 -2.898,1.813 -3.9,1.861c-0.811,0.048 -1.61,-0.084 -2.398,-0.394c-0.787,-0.31 -1.503,-0.739 -2.147,-1.288c-0.644,-0.549 -1.181,-1.193 -1.61,-1.932c-0.43,-0.74 -0.668,-1.515 -0.716,-2.326c-0.143,-1.193 -0.143,-2.827 0,-4.903c0.143,-2.075 0.406,-4.199 0.787,-6.37c0.382,-2.171 0.871,-4.234 1.468,-6.19c0.596,-1.957 1.276,-3.412 2.039,-4.366Z" style="fill:#1b2a30;fill-rule:nonzero;stroke:#1b2a30;stroke-width:1px;"/></g></g></svg>